<svg width="24" height="24" viewBox="0 0 24 24" fill="none" xmlns="http://www.w3.org/2000/svg">
<path d="M12 0.375C14.0625 0.375 16.0312 0.9375 17.8125 1.96875C19.5938 3 21 4.40625 22.0312 6.1875C23.0625 7.96875 23.625 9.9375 23.625 12C23.625 14.1094 23.0625 16.0312 22.0312 17.8125C21 19.5938 19.5938 21.0469 17.8125 22.0781C16.0312 23.1094 14.0625 23.625 12 23.625C9.89062 23.625 7.96875 23.1094 6.1875 22.0781C4.40625 21.0469 2.95312 19.5938 1.92188 17.8125C0.890625 16.0312 0.375 14.1094 0.375 12C0.375 9.9375 0.890625 7.96875 1.92188 6.1875C2.95312 4.40625 4.40625 3 6.1875 1.96875C7.96875 0.9375 9.89062 0.375 12 0.375ZM12 22.125C13.8281 22.125 15.5156 21.7031 17.0625 20.7656C18.6094 19.875 19.8281 18.6562 20.7656 17.0625C21.6562 15.5156 22.125 13.8281 22.125 12C22.125 10.1719 21.6562 8.48438 20.7656 6.9375C19.8281 5.39062 18.6094 4.17188 17.0625 3.23438C15.4688 2.34375 13.7812 1.875 11.9531 1.875C10.125 1.875 8.4375 2.34375 6.89062 3.23438C5.34375 4.17188 4.125 5.39062 3.23438 6.9375C2.29688 8.53125 1.875 10.2188 1.875 12.0469C1.875 13.875 2.29688 15.5625 3.23438 17.1094C4.125 18.6562 5.34375 19.875 6.9375 20.7656C8.48438 21.7031 10.1719 22.125 12 22.125ZM18.6562 9.23438C18.75 9.14062 18.7969 9.04688 18.7969 8.85938C18.7969 8.71875 18.75 8.57812 18.6562 8.4375L18.2344 8.0625C18.1406 7.96875 18 7.875 17.8594 7.875C17.6719 7.875 17.5312 7.92188 17.4375 8.01562L9.79688 15.6562L6.5625 12.375C6.42188 12.2812 6.28125 12.2344 6.14062 12.2344C5.95312 12.2344 5.85938 12.2812 5.76562 12.375L5.34375 12.75C5.25 12.8906 5.20312 13.0312 5.20312 13.1719C5.20312 13.3594 5.25 13.4531 5.34375 13.5469L9.375 17.625C9.46875 17.7656 9.60938 17.8125 9.79688 17.8125C9.9375 17.8125 10.0781 17.7656 10.1719 17.625L18.6562 9.23438Z" fill="#00A351"/>
</svg>
