<svg width="88" height="89" viewBox="0 0 88 89" fill="none" xmlns="http://www.w3.org/2000/svg">
<path d="M87.5 10.125C87.5 7.58594 86.5234 5.4375 84.7656 3.48438C82.8125 1.72656 80.6641 0.75 78.125 0.75H9.375C6.64062 0.75 4.49219 1.72656 2.73438 3.48438C0.78125 5.4375 0 7.58594 0 10.125V78.875C0 81.6094 0.78125 83.7578 2.73438 85.5156C4.49219 87.4688 6.64062 88.25 9.375 88.25H78.125C80.6641 88.25 82.8125 87.4688 84.7656 85.5156C86.5234 83.7578 87.5 81.6094 87.5 78.875V10.125ZM78.125 77.7031C78.125 78.0938 77.9297 78.2891 77.7344 78.4844C77.3438 78.875 77.1484 78.875 76.9531 78.875H10.5469C10.1562 78.875 9.96094 78.875 9.76562 78.4844C9.375 78.2891 9.375 78.0938 9.375 77.7031V11.2969C9.375 11.1016 9.375 10.9062 9.76562 10.5156C9.96094 10.3203 10.1562 10.125 10.5469 10.125H76.9531C77.1484 10.125 77.3438 10.3203 77.7344 10.5156C77.9297 10.9062 78.125 11.1016 78.125 11.2969V77.7031ZM51.9531 63.25C51.9531 61.1016 50.9766 59.1484 49.4141 57.5859C47.8516 56.0234 45.8984 55.0469 43.75 55.0469C41.4062 55.0469 39.4531 56.0234 37.8906 57.5859C36.3281 59.1484 35.5469 61.1016 35.5469 63.25C35.5469 65.5938 36.3281 67.5469 37.8906 69.1094C39.4531 70.6719 41.4062 71.4531 43.75 71.4531C45.8984 71.4531 47.8516 70.6719 49.4141 69.1094C50.9766 67.5469 51.9531 65.5938 51.9531 63.25ZM36.1328 22.0391C35.9375 21.2578 36.1328 20.6719 36.5234 20.2812C36.9141 19.8906 37.6953 19.5 38.4766 19.5H49.0234C49.8047 19.5 50.3906 19.8906 50.7812 20.2812C51.1719 20.6719 51.3672 21.2578 51.3672 22.0391L50.1953 48.6016C50 49.1875 49.6094 49.7734 49.2188 50.1641C48.8281 50.5547 48.2422 50.75 47.8516 50.75H39.6484C39.0625 50.75 38.4766 50.5547 38.0859 50.1641C37.6953 49.7734 37.3047 49.1875 37.3047 48.6016L36.1328 22.0391Z" fill="#DA223D"/>
</svg>
