<svg width="18" height="19" viewBox="0 0 18 19" fill="none" xmlns="http://www.w3.org/2000/svg">
<path d="M15.875 0.75C16.3828 0.75 16.8125 0.945312 17.2031 1.29688C17.5547 1.6875 17.75 2.11719 17.75 2.625V16.375C17.75 16.9219 17.5547 17.3516 17.2031 17.7031C16.8125 18.0938 16.3828 18.25 15.875 18.25H2.125C1.57812 18.25 1.14844 18.0938 0.796875 17.7031C0.40625 17.3516 0.25 16.9219 0.25 16.375V2.625C0.25 2.11719 0.40625 1.6875 0.796875 1.29688C1.14844 0.945312 1.57812 0.75 2.125 0.75H15.875ZM16.5 16.375V2.625C16.5 2.46875 16.4219 2.3125 16.3047 2.19531C16.1875 2.07812 16.0312 2 15.875 2H2.125C1.92969 2 1.77344 2.07812 1.65625 2.19531C1.53906 2.3125 1.5 2.46875 1.5 2.625V16.375C1.5 16.5703 1.53906 16.7266 1.65625 16.8438C1.77344 16.9609 1.92969 17 2.125 17H15.875C16.0312 17 16.1875 16.9609 16.3047 16.8438C16.4219 16.7266 16.5 16.5703 16.5 16.375ZM9 12.7812C9.3125 12.7812 9.54688 12.8984 9.78125 13.0938C9.97656 13.3281 10.0938 13.5625 10.0938 13.875C10.0938 14.1875 9.97656 14.4609 9.78125 14.6562C9.54688 14.8906 9.3125 14.9688 9 14.9688C8.6875 14.9688 8.41406 14.8906 8.21875 14.6562C7.98438 14.4609 7.90625 14.1875 7.90625 13.875C7.90625 13.5625 7.98438 13.3281 8.21875 13.0938C8.41406 12.8984 8.6875 12.7812 9 12.7812ZM8.57031 4.5C8.41406 4.5 8.25781 4.57812 8.17969 4.65625C8.10156 4.73438 8.0625 4.85156 8.10156 4.96875L8.375 11.5703C8.375 11.6875 8.41406 11.8047 8.49219 11.8828C8.57031 11.9609 8.6875 12 8.84375 12H9.15625C9.27344 12 9.39062 11.9609 9.46875 11.8828C9.54688 11.8047 9.625 11.6875 9.625 11.5312L9.89844 4.96875C9.89844 4.85156 9.85938 4.73438 9.78125 4.65625C9.70312 4.57812 9.58594 4.5 9.42969 4.5H8.57031ZM9 12.7812C9.3125 12.7812 9.54688 12.8984 9.78125 13.0938C9.97656 13.3281 10.0938 13.5625 10.0938 13.875C10.0938 14.1875 9.97656 14.4609 9.78125 14.6562C9.54688 14.8906 9.3125 14.9688 9 14.9688C8.6875 14.9688 8.41406 14.8906 8.21875 14.6562C7.98438 14.4609 7.90625 14.1875 7.90625 13.875C7.90625 13.5625 7.98438 13.3281 8.21875 13.0938C8.41406 12.8984 8.6875 12.7812 9 12.7812Z" fill="#1F2A4B"/>
</svg>
