<svg width="15" height="14" viewBox="0 0 15 14" fill="none" xmlns="http://www.w3.org/2000/svg">
<path d="M14.625 0.980469C14.625 0.878906 14.5742 0.802734 14.5234 0.726562C14.4473 0.675781 14.3711 0.625 14.2695 0.625H10.1055C10.0039 0.625 9.90234 0.675781 9.85156 0.751953C9.77539 0.828125 9.75 0.904297 9.75 1.00586V1.84375C9.75 1.94531 9.77539 2.04688 9.85156 2.09766C9.92773 2.17383 10.0293 2.19922 10.1309 2.19922L11.9844 2.14844L12.0352 2.19922L4.97656 9.25781C4.90039 9.33398 4.875 9.41016 4.875 9.48633C4.875 9.58789 4.90039 9.63867 4.97656 9.68945L5.56055 10.2734C5.61133 10.3496 5.66211 10.375 5.76367 10.375C5.83984 10.375 5.91602 10.3496 5.99219 10.2734L13.0508 3.21484L13.1016 3.26562L13.0508 5.11914C13.0508 5.2207 13.0762 5.32227 13.1523 5.39844C13.2031 5.47461 13.3047 5.5 13.4062 5.5H14.2441C14.3457 5.5 14.4219 5.47461 14.498 5.39844C14.5742 5.34766 14.625 5.24609 14.625 5.14453V0.980469ZM10.8672 6.56641C10.9434 6.46484 11.0449 6.43945 11.1719 6.49023C11.2988 6.54102 11.375 6.64258 11.375 6.76953V12.4062C11.375 12.7617 11.248 13.041 11.0195 13.2695C10.7656 13.5234 10.4863 13.625 10.1562 13.625H1.21875C0.863281 13.625 0.583984 13.5234 0.355469 13.2695C0.101562 13.041 0 12.7617 0 12.4062V3.46875C0 3.13867 0.101562 2.85938 0.355469 2.60547C0.583984 2.37695 0.863281 2.25 1.21875 2.25H8.42969C8.50586 2.25 8.58203 2.30078 8.63281 2.35156L9.24219 2.96094C9.34375 3.0625 9.36914 3.16406 9.31836 3.29102C9.26758 3.41797 9.16602 3.46875 9.03906 3.46875H1.37109C1.32031 3.46875 1.29492 3.49414 1.26953 3.51953C1.21875 3.57031 1.21875 3.5957 1.21875 3.62109V12.2539C1.21875 12.3047 1.21875 12.3301 1.26953 12.3555C1.29492 12.4062 1.32031 12.4062 1.37109 12.4062H10.0039C10.0293 12.4062 10.0547 12.4062 10.1055 12.3555C10.1309 12.3301 10.1562 12.3047 10.1562 12.2539V7.37891C10.1562 7.30273 10.1816 7.22656 10.2578 7.17578L10.8672 6.56641Z" fill="#222222"/>
</svg>
