<svg width="30" height="24" viewBox="0 0 30 24" fill="none" xmlns="http://www.w3.org/2000/svg">
<path d="M29.25 10.875C29.4375 10.875 29.625 10.9688 29.7656 11.1094C29.9062 11.25 30 11.4375 30 11.625V12.375C30 12.6094 29.9062 12.7969 29.7656 12.9375C29.625 13.0781 29.4375 13.125 29.25 13.125H23.2031L20.5312 18.8438C20.3906 19.0781 20.25 19.2656 20.0625 19.3594C19.875 19.5 19.6406 19.5469 19.4062 19.5C19.125 19.5 18.9375 19.4062 18.75 19.2188C18.5625 19.0781 18.4688 18.8906 18.4219 18.6562L15.1406 6.04688L11.5781 23.1094C11.5312 23.3906 11.3906 23.5781 11.2031 23.7656C11.0156 23.9531 10.7812 24 10.5469 24H10.5C10.2188 24 9.98438 23.9531 9.79688 23.7656C9.60938 23.625 9.46875 23.4375 9.42188 23.1562L6.65625 13.125H0.75C0.515625 13.125 0.328125 13.0781 0.1875 12.9375C0.046875 12.7969 0 12.6094 0 12.375V11.625C0 11.4375 0.046875 11.25 0.1875 11.1094C0.328125 10.9688 0.515625 10.875 0.75 10.875H7.5C7.73438 10.875 7.96875 10.9688 8.15625 11.1094C8.34375 11.2969 8.48438 11.4844 8.57812 11.7188L10.3594 18.0938L13.9219 0.890625C13.9219 0.65625 14.0625 0.46875 14.25 0.28125C14.4375 0.09375 14.6719 0 14.9531 0H15C15.2344 0 15.4688 0.09375 15.6562 0.234375C15.8438 0.421875 15.9844 0.609375 16.0781 0.84375L19.8281 15.0938L21.4688 11.5312C21.5625 11.3438 21.7031 11.1562 21.8906 11.0625C22.0781 10.9688 22.2656 10.875 22.5 10.875H29.25Z" fill="#EEEEEE"/>
</svg>
