<svg width="23" height="21" viewBox="0 0 23 21" fill="none" xmlns="http://www.w3.org/2000/svg">
<path d="M7.32031 4.48438L7.28125 4.52344C7.125 4.67969 7.125 4.83594 7.20312 5.03125C7.28125 5.22656 7.39844 5.30469 7.63281 5.30469H10.25V11.2812C10.25 11.4375 10.2891 11.5547 10.3672 11.6328C10.4453 11.7109 10.5625 11.75 10.7188 11.75H12.2812C12.3984 11.75 12.5156 11.7109 12.5938 11.6328C12.6719 11.5547 12.75 11.4375 12.75 11.2812V5.30469H15.3672C15.5625 5.30469 15.7188 5.22656 15.7969 5.03125C15.875 4.83594 15.8359 4.64062 15.7188 4.48438L11.8125 0.617188C11.7344 0.539062 11.6172 0.5 11.5 0.5C11.3438 0.5 11.2656 0.539062 11.1875 0.617188L7.32031 4.48438ZM22.75 14.3281C22.75 13.8594 22.5938 13.4688 22.2812 13.0781L18.2969 8.625C17.9062 8.23438 17.4375 8 16.8906 8H14.8594C14.7812 8 14.7422 8.03906 14.7031 8.07812C14.625 8.15625 14.625 8.19531 14.625 8.23438V9.64062C14.625 9.71875 14.625 9.75781 14.7031 9.79688C14.7422 9.875 14.7812 9.875 14.8594 9.875H16.9297L19.1172 12.375H15.0156L13.7656 14.875H9.23438L7.98438 12.375H3.88281L6.10938 9.875H8.14062C8.17969 9.875 8.21875 9.875 8.29688 9.79688C8.33594 9.75781 8.375 9.71875 8.375 9.64062V8.23438C8.375 8.19531 8.33594 8.15625 8.29688 8.07812C8.21875 8.03906 8.17969 8 8.14062 8H6.10938C5.52344 8 5.05469 8.23438 4.70312 8.625L0.71875 13.0781C0.40625 13.4688 0.25 13.8594 0.25 14.3281V18.625C0.25 19.1719 0.40625 19.6016 0.796875 19.9531C1.14844 20.3438 1.57812 20.5 2.125 20.5H20.875C21.3828 20.5 21.8125 20.3438 22.2031 19.9531C22.5547 19.6016 22.75 19.1719 22.75 18.625V14.3281ZM20.875 14.25V18.625H2.125V14.25H6.8125L8.0625 16.75H14.9375L16.1875 14.25H20.875Z" fill="white"/>
</svg>
