<svg width="19" height="18" viewBox="0 0 19 18" fill="none" xmlns="http://www.w3.org/2000/svg">
<path d="M18.385 7.875C18.4788 7.875 18.5256 7.92188 18.6194 8.01562C18.7131 8.10938 18.76 8.15625 18.76 8.25V9.75C18.76 9.84375 18.7131 9.9375 18.6194 10.0312C18.5256 10.125 18.4788 10.125 18.385 10.125H10.885V17.625C10.885 17.7188 10.8381 17.8125 10.7444 17.9062C10.6506 18 10.6038 18 10.51 18H9.01C8.91625 18 8.8225 18 8.72875 17.9062C8.635 17.8125 8.635 17.7188 8.635 17.625V10.125H1.135C1.04125 10.125 0.9475 10.125 0.85375 10.0312C0.76 9.9375 0.76 9.84375 0.76 9.75V8.25C0.76 8.15625 0.76 8.10938 0.85375 8.01562C0.9475 7.92188 1.04125 7.875 1.135 7.875H8.635V0.375C8.635 0.28125 8.635 0.234375 8.72875 0.140625C8.8225 0.046875 8.91625 0 9.01 0H10.51C10.6038 0 10.6506 0.046875 10.7444 0.140625C10.8381 0.234375 10.885 0.28125 10.885 0.375V7.875H18.385Z" fill="white"/>
</svg>
