<svg width="18" height="21" viewBox="0 0 18 21" fill="none" xmlns="http://www.w3.org/2000/svg">
<path d="M15.6406 7.6875C16.6172 9.09375 17.125 10.6562 17.125 12.375C17.125 13.8594 16.7344 15.2266 16.0312 16.4766C15.2891 17.7266 14.3125 18.7031 13.0625 19.4062C11.8125 20.1484 10.4844 20.5 9 20.5C7.51562 20.5 6.14844 20.1484 4.89844 19.4062C3.64844 18.7031 2.67188 17.7266 1.96875 16.4766C1.22656 15.2266 0.875 13.8594 0.875 12.375C0.875 11.0469 1.1875 9.75781 1.8125 8.58594C2.4375 7.41406 3.33594 6.4375 4.42969 5.65625C5.52344 4.91406 6.73438 4.44531 8.0625 4.28906V2.375H6.96875C6.8125 2.375 6.69531 2.33594 6.61719 2.25781C6.53906 2.17969 6.5 2.0625 6.5 1.90625V0.96875C6.5 0.851562 6.53906 0.734375 6.61719 0.65625C6.69531 0.578125 6.8125 0.5 6.96875 0.5H11.0312C11.1484 0.5 11.2656 0.578125 11.3438 0.65625C11.4219 0.734375 11.5 0.851562 11.5 0.96875V1.90625C11.5 2.0625 11.4219 2.17969 11.3438 2.25781C11.2656 2.33594 11.1484 2.375 11.0312 2.375H9.9375V4.28906C11.6172 4.52344 13.1016 5.1875 14.3906 6.28125L15.2109 5.46094C15.2891 5.38281 15.3672 5.34375 15.5234 5.34375C15.6406 5.34375 15.7578 5.38281 15.875 5.46094L16.5391 6.125C16.6172 6.24219 16.6562 6.35938 16.6562 6.47656C16.6562 6.63281 16.6172 6.71094 16.5391 6.78906L15.6406 7.6875ZM9 18.625C10.0938 18.625 11.1484 18.3516 12.125 17.8047C13.0625 17.2578 13.8438 16.4766 14.3906 15.5C14.9375 14.5625 15.25 13.5078 15.25 12.375C15.25 11.2812 14.9375 10.2266 14.3906 9.25C13.8438 8.3125 13.0625 7.53125 12.125 6.98438C11.1484 6.4375 10.0938 6.125 9 6.125C7.86719 6.125 6.8125 6.4375 5.875 6.98438C4.89844 7.53125 4.11719 8.3125 3.57031 9.25C3.02344 10.2266 2.75 11.2812 2.75 12.375C2.75 13.5078 3.02344 14.5625 3.57031 15.5C4.11719 16.4766 4.89844 17.2578 5.875 17.8047C6.8125 18.3516 7.86719 18.625 9 18.625ZM9.46875 14.25C9.58594 14.25 9.70312 14.2109 9.78125 14.1328C9.85938 14.0547 9.9375 13.9375 9.9375 13.7812V8.46875C9.9375 8.35156 9.85938 8.23438 9.78125 8.15625C9.70312 8.07812 9.58594 8 9.46875 8H8.53125C8.375 8 8.25781 8.07812 8.17969 8.15625C8.10156 8.23438 8.0625 8.35156 8.0625 8.46875V13.7812C8.0625 13.9375 8.10156 14.0547 8.17969 14.1328C8.25781 14.2109 8.375 14.25 8.53125 14.25H9.46875Z" fill="white"/>
</svg>
