<svg width="20" height="17" viewBox="0 0 20 17" fill="none" xmlns="http://www.w3.org/2000/svg">
<path d="M17.9297 4.4375C18.7109 3.85156 19.4141 3.14844 20 2.28906C19.2188 2.64062 18.4375 2.875 17.6562 2.95312C18.5156 2.40625 19.1406 1.66406 19.4531 0.6875C18.6328 1.15625 17.7734 1.50781 16.8359 1.66406C16.4453 1.27344 15.9766 0.960938 15.4688 0.726562C14.9609 0.492188 14.4141 0.375 13.8281 0.375C13.0859 0.375 12.4219 0.570312 11.7969 0.921875C11.1719 1.3125 10.6641 1.82031 10.3125 2.44531C9.92188 3.07031 9.76562 3.77344 9.76562 4.47656C9.76562 4.78906 9.76562 5.10156 9.84375 5.41406C8.16406 5.33594 6.60156 4.94531 5.11719 4.16406C3.63281 3.42188 2.42188 2.40625 1.40625 1.11719C1.01562 1.78125 0.820312 2.48438 0.820312 3.1875C0.820312 3.89062 0.976562 4.55469 1.32812 5.14062C1.64062 5.76562 2.10938 6.23438 2.65625 6.625C1.99219 6.625 1.36719 6.42969 0.820312 6.07812V6.15625C0.820312 7.13281 1.13281 7.99219 1.75781 8.73438C2.38281 9.51562 3.16406 9.98438 4.10156 10.1797C3.71094 10.2578 3.35938 10.2969 3.00781 10.2969C2.77344 10.2969 2.5 10.2969 2.26562 10.2578C2.5 11.0781 2.96875 11.7422 3.67188 12.2891C4.375 12.8359 5.15625 13.0703 6.09375 13.0703C4.57031 14.2422 2.85156 14.8281 0.976562 14.8281C0.585938 14.8281 0.273438 14.8281 0 14.7891C1.875 16.0391 3.98438 16.625 6.28906 16.625C8.67188 16.625 10.7812 16.0391 12.6562 14.7891C14.3359 13.6953 15.6641 12.25 16.6016 10.375C17.5 8.65625 17.9688 6.82031 17.9688 4.94531C17.9688 4.71094 17.9297 4.55469 17.9297 4.4375Z" fill="#1F2A4B"/>
</svg>
