<svg width="23" height="19" viewBox="0 0 23 19" fill="none" xmlns="http://www.w3.org/2000/svg">
<path d="M11.5 0.75C13.5312 0.75 15.4062 1.25781 17.1641 2.27344C18.8828 3.28906 20.2109 4.61719 21.2266 6.33594C22.2422 8.09375 22.75 9.96875 22.75 12C22.75 14.0312 22.2422 15.9453 21.2266 17.6641C21.1094 17.8594 20.9531 18.0156 20.7578 18.0938C20.5625 18.2109 20.3672 18.25 20.1719 18.25H2.86719C2.63281 18.25 2.39844 18.2109 2.20312 18.0938C2.00781 18.0156 1.85156 17.8594 1.77344 17.6641C0.757812 15.9453 0.25 14.0312 0.25 12C0.25 9.96875 0.757812 8.09375 1.77344 6.33594C2.75 4.61719 4.11719 3.28906 5.83594 2.27344C7.55469 1.25781 9.46875 0.75 11.5 0.75ZM19.7812 16.375C20.4844 15.0469 20.875 13.5625 20.875 12C20.875 10.3203 20.4453 8.75781 19.5859 7.3125C18.7266 5.90625 17.5938 4.77344 16.1875 3.91406C14.7422 3.05469 13.1797 2.625 11.5 2.625C9.78125 2.625 8.21875 3.05469 6.8125 3.91406C5.36719 4.77344 4.23438 5.90625 3.375 7.3125C2.51562 8.75781 2.125 10.3203 2.125 12C2.125 13.5625 2.47656 15.0469 3.21875 16.375H19.7812ZM14.3125 4.85156C14.5469 4.92969 14.7031 5.08594 14.8203 5.32031C14.9375 5.55469 14.9766 5.82812 14.8984 6.0625L13.1016 11.375C13.6875 11.8828 14 12.5078 14 13.25C14 13.7188 13.8828 14.1094 13.6484 14.5H9.35156C9.11719 14.1094 9 13.7188 9 13.25C9 12.625 9.19531 12.0391 9.66406 11.5703C10.1328 11.1016 10.6797 10.8281 11.3438 10.75L13.1016 5.4375C13.1797 5.20312 13.3359 5.04688 13.5703 4.92969C13.8047 4.8125 14.0391 4.77344 14.3125 4.85156Z" fill="black"/>
</svg>
