<svg width="24" height="24" viewBox="0 0 24 24" fill="none" xmlns="http://www.w3.org/2000/svg">
<path d="M12 23.625C9.89062 23.625 7.96875 23.1094 6.1875 22.0781C4.40625 21.0469 2.95312 19.5938 1.92188 17.8125C0.890625 16.0312 0.375 14.1094 0.375 12C0.375 9.9375 0.890625 7.96875 1.92188 6.1875C2.95312 4.40625 4.40625 3 6.1875 1.96875C7.96875 0.9375 9.89062 0.375 12 0.375C14.0625 0.375 16.0312 0.9375 17.8125 1.96875C19.5938 3 21 4.40625 22.0312 6.1875C23.0625 7.96875 23.625 9.9375 23.625 12C23.625 14.1094 23.0625 16.0312 22.0312 17.8125C21 19.5938 19.5938 21.0469 17.8125 22.0781C16.0312 23.1094 14.0625 23.625 12 23.625ZM12 2.625C10.3125 2.625 8.71875 3.04688 7.3125 3.89062C5.85938 4.73438 4.73438 5.90625 3.89062 7.3125C3.04688 8.76562 2.625 10.3125 2.625 12C2.625 13.6875 3.04688 15.2812 3.89062 16.6875C4.73438 18.1406 5.85938 19.2656 7.3125 20.1094C8.71875 20.9531 10.3125 21.375 12 21.375C13.6875 21.375 15.2344 20.9531 16.6875 20.1094C18.0938 19.2656 19.2656 18.1406 20.1094 16.6875C20.9531 15.2812 21.375 13.6875 21.375 12C21.375 10.3125 20.9531 8.76562 20.1094 7.3125C19.2656 5.90625 18.0938 4.73438 16.6875 3.89062C15.2344 3.04688 13.6875 2.625 12 2.625ZM5.90625 11.4844C5.8125 11.625 5.76562 11.7656 5.76562 11.9062C5.76562 12.0938 5.8125 12.1875 5.90625 12.2812L6.84375 13.2188C6.9375 13.3125 7.03125 13.3594 7.21875 13.3594C7.35938 13.3594 7.5 13.3125 7.64062 13.1719L10.7812 9.89062V17.4375C10.7812 17.625 10.8281 17.7656 10.9219 17.8594C11.0156 17.9531 11.1562 18 11.3438 18H12.6562C12.7969 18 12.9375 17.9531 13.0312 17.8594C13.125 17.7656 13.2188 17.625 13.2188 17.4375V9.89062L16.3594 13.2188C16.4531 13.3125 16.5938 13.3594 16.7812 13.3594C16.9219 13.3594 17.0625 13.3125 17.1562 13.2188L18.0938 12.2812C18.1875 12.1875 18.2344 12.0938 18.2344 11.9062C18.2344 11.7656 18.1875 11.625 18.0938 11.4844L12.4219 5.8125C12.2812 5.71875 12.1406 5.625 12 5.625C11.8125 5.625 11.7188 5.71875 11.625 5.8125L5.90625 11.4844Z" fill="#EEEEEE"/>
</svg>
