<svg width="24" height="24" viewBox="0 0 24 24" fill="none" xmlns="http://www.w3.org/2000/svg">
<path d="M12 0.375C14.0625 0.375 16.0312 0.9375 17.8125 1.96875C19.5938 3 21 4.40625 22.0312 6.1875C23.0625 7.96875 23.625 9.9375 23.625 12C23.625 14.1094 23.0625 16.0312 22.0312 17.8125C21 19.5938 19.5938 21.0469 17.8125 22.0781C16.0312 23.1094 14.0625 23.625 12 23.625C9.89062 23.625 7.96875 23.1094 6.1875 22.0781C4.40625 21.0469 2.95312 19.5938 1.92188 17.8125C0.890625 16.0312 0.375 14.1094 0.375 12C0.375 9.9375 0.890625 7.96875 1.92188 6.1875C2.95312 4.40625 4.40625 3 6.1875 1.96875C7.96875 0.9375 9.89062 0.375 12 0.375ZM12 21.375C13.6875 21.375 15.2344 20.9531 16.6875 20.1094C18.0938 19.2656 19.2656 18.1406 20.1094 16.6875C20.9531 15.2812 21.375 13.6875 21.375 12C21.375 10.3125 20.9531 8.76562 20.1094 7.3125C19.2656 5.90625 18.0938 4.73438 16.6875 3.89062C15.2344 3.04688 13.6875 2.625 12 2.625C10.3125 2.625 8.71875 3.04688 7.3125 3.89062C5.85938 4.73438 4.73438 5.90625 3.89062 7.3125C3.04688 8.76562 2.625 10.3125 2.625 12C2.625 13.6875 3.04688 15.2812 3.89062 16.6875C4.73438 18.1406 5.85938 19.2656 7.3125 20.1094C8.71875 20.9531 10.3125 21.375 12 21.375ZM18.0938 11.7188C18.1875 11.8125 18.2344 11.9531 18.2344 12.0938C18.2344 12.2812 18.1875 12.4219 18.0938 12.5156L12.4219 18.1875C12.2812 18.3281 12.1406 18.375 12 18.375C11.8125 18.375 11.7188 18.3281 11.625 18.1875L5.90625 12.5156C5.8125 12.4219 5.76562 12.2812 5.76562 12.0938C5.76562 11.9531 5.8125 11.8125 5.90625 11.7188L6.84375 10.7812C6.9375 10.6875 7.03125 10.6406 7.21875 10.6406C7.35938 10.6406 7.5 10.6875 7.64062 10.7812L10.7812 14.1094V6.5625C10.7812 6.42188 10.8281 6.28125 10.9219 6.1875C11.0156 6.09375 11.1562 6 11.3438 6H12.6562C12.7969 6 12.9375 6.09375 13.0312 6.1875C13.125 6.28125 13.2188 6.42188 13.2188 6.5625V14.1094L16.3594 10.7812C16.4531 10.6875 16.5938 10.6406 16.7812 10.6406C16.9219 10.6406 17.0625 10.6875 17.1562 10.7812L18.0938 11.7188Z" fill="#EEEEEE"/>
</svg>
