<svg width="86" height="86" viewBox="0 0 86 86" fill="none" xmlns="http://www.w3.org/2000/svg">
<path d="M43 0.375C50.5625 0.375 57.7812 2.4375 64.3125 6.21875C70.8438 10 76 15.1562 79.7812 21.6875C83.5625 28.2188 85.625 35.4375 85.625 43C85.625 50.7344 83.5625 57.7812 79.7812 64.3125C76 70.8438 70.8438 76.1719 64.3125 79.9531C57.7812 83.7344 50.5625 85.625 43 85.625C35.2656 85.625 28.2188 83.7344 21.6875 79.9531C15.1562 76.1719 9.82812 70.8438 6.04688 64.3125C2.26562 57.7812 0.375 50.7344 0.375 43C0.375 35.4375 2.26562 28.2188 6.04688 21.6875C9.82812 15.1562 15.1562 10 21.6875 6.21875C28.2188 2.4375 35.2656 0.375 43 0.375ZM65.3438 20.6562C61.5625 17.0469 57.4375 14.4688 52.625 12.9219C47.8125 11.5469 43 11.2031 38.1875 11.8906C33.2031 12.5781 28.7344 14.2969 24.7812 17.0469L68.9531 61.2188C71.7031 57.2656 73.4219 52.7969 74.1094 47.8125C74.7969 43 74.4531 38.1875 73.0781 33.375C71.5312 28.5625 68.9531 24.4375 65.3438 20.6562ZM20.6562 65.3438C24.2656 69.125 28.3906 71.7031 33.2031 73.0781C38.0156 74.625 42.8281 74.9688 47.8125 74.2812C52.625 73.5938 57.0938 71.7031 61.2188 68.9531L17.0469 24.7812C14.2969 28.9062 12.4062 33.375 11.7188 38.1875C11.0312 43.1719 11.375 47.9844 12.9219 52.7969C14.2969 57.6094 16.875 61.7344 20.6562 65.3438Z" fill="#DA223D"/>
</svg>
