<svg width="24" height="24" viewBox="0 0 24 24" fill="none" xmlns="http://www.w3.org/2000/svg">
<path d="M12 0.375C14.0625 0.375 16.0312 0.9375 17.8125 1.96875C19.5938 3 21 4.40625 22.0312 6.1875C23.0625 7.96875 23.625 9.9375 23.625 12C23.625 14.1094 23.0625 16.0312 22.0312 17.8125C21 19.5938 19.5938 21.0469 17.8125 22.0781C16.0312 23.1094 14.0625 23.625 12 23.625C9.89062 23.625 7.96875 23.1094 6.1875 22.0781C4.40625 21.0469 2.95312 19.5938 1.92188 17.8125C0.890625 16.0312 0.375 14.1094 0.375 12C0.375 9.9375 0.890625 7.96875 1.92188 6.1875C2.95312 4.40625 4.40625 3 6.1875 1.96875C7.96875 0.9375 9.89062 0.375 12 0.375ZM22.125 12C22.125 10.1719 21.6562 8.48438 20.7656 6.9375C19.8281 5.39062 18.6094 4.17188 17.0625 3.23438C15.4688 2.34375 13.7812 1.875 11.9531 1.875C10.125 1.875 8.4375 2.34375 6.89062 3.23438C5.34375 4.17188 4.125 5.39062 3.23438 6.9375C2.29688 8.53125 1.875 10.2188 1.875 12.0469C1.875 13.875 2.29688 15.5625 3.23438 17.1094C4.125 18.6562 5.34375 19.875 6.9375 20.7656C8.48438 21.7031 10.1719 22.125 12 22.125C13.8281 22.125 15.5156 21.7031 17.0625 20.7656C18.6094 19.875 19.8281 18.6562 20.7656 17.0625C21.6562 15.5156 22.125 13.8281 22.125 12ZM16.5 10.5H7.5L12 15L16.5 10.5ZM7.5 9H16.5C16.9219 9 17.2969 9.1875 17.5781 9.46875C17.8594 9.75 18 10.125 18 10.5C18 10.9219 17.8594 11.2969 17.5781 11.5781L13.0781 16.0781C12.75 16.3594 12.375 16.5 12 16.5C11.5781 16.5 11.2031 16.3594 10.9219 16.0781L6.42188 11.5781C6.14062 11.2969 6 10.9219 6 10.5C6 10.125 6.14062 9.75 6.42188 9.46875C6.70312 9.1875 7.03125 9 7.5 9Z" fill="#BCC1D5"/>
</svg>
