<svg width="18" height="19" viewBox="0 0 18 19" fill="none" xmlns="http://www.w3.org/2000/svg">
<path d="M15.875 0.75C16.3828 0.75 16.8125 0.945312 17.2031 1.29688C17.5547 1.6875 17.75 2.11719 17.75 2.625V16.375C17.75 16.9219 17.5547 17.3516 17.2031 17.7031C16.8125 18.0938 16.3828 18.25 15.875 18.25H2.125C1.57812 18.25 1.14844 18.0938 0.796875 17.7031C0.40625 17.3516 0.25 16.9219 0.25 16.375V2.625C0.25 2.11719 0.40625 1.6875 0.796875 1.29688C1.14844 0.945312 1.57812 0.75 2.125 0.75H15.875ZM15.875 16.375V2.625H2.125V16.375H15.875ZM14.4688 6.92188C14.5469 6.84375 14.625 6.76562 14.625 6.60938C14.625 6.49219 14.5469 6.375 14.4688 6.25781L13.6094 5.39844C13.4922 5.32031 13.375 5.24219 13.2578 5.24219C13.1016 5.24219 13.0234 5.32031 12.9453 5.39844L7.39844 10.8672L5.09375 8.48438C4.97656 8.40625 4.85938 8.36719 4.74219 8.36719C4.58594 8.36719 4.50781 8.40625 4.42969 8.48438L3.53125 9.38281C3.41406 9.46094 3.375 9.57812 3.375 9.69531C3.375 9.85156 3.41406 9.96875 3.53125 10.0469L7.08594 13.6016C7.16406 13.7188 7.24219 13.7578 7.39844 13.7578C7.51562 13.7578 7.63281 13.7188 7.75 13.6016L14.4688 6.92188Z" fill="white"/>
</svg>
