<svg width="22" height="24" viewBox="0 0 22 24" fill="none" xmlns="http://www.w3.org/2000/svg">
<path d="M7.4375 13.5C7.57812 13.5 7.71875 13.4531 7.8125 13.3594C7.90625 13.2656 8 13.125 8 12.9375V11.0625C8 10.9219 7.90625 10.7812 7.8125 10.6875C7.71875 10.5938 7.57812 10.5 7.4375 10.5H5.5625C5.375 10.5 5.23438 10.5938 5.14062 10.6875C5.04688 10.7812 5 10.9219 5 11.0625V12.9375C5 13.125 5.04688 13.2656 5.14062 13.3594C5.23438 13.4531 5.375 13.5 5.5625 13.5H7.4375ZM12.5 12.9375C12.5 13.125 12.4062 13.2656 12.3125 13.3594C12.2188 13.4531 12.0781 13.5 11.9375 13.5H10.0625C9.875 13.5 9.73438 13.4531 9.64062 13.3594C9.54688 13.2656 9.5 13.125 9.5 12.9375V11.0625C9.5 10.9219 9.54688 10.7812 9.64062 10.6875C9.73438 10.5938 9.875 10.5 10.0625 10.5H11.9375C12.0781 10.5 12.2188 10.5938 12.3125 10.6875C12.4062 10.7812 12.5 10.9219 12.5 11.0625V12.9375ZM17 12.9375C17 13.125 16.9062 13.2656 16.8125 13.3594C16.7188 13.4531 16.5781 13.5 16.4375 13.5H14.5625C14.375 13.5 14.2344 13.4531 14.1406 13.3594C14.0469 13.2656 14 13.125 14 12.9375V11.0625C14 10.9219 14.0469 10.7812 14.1406 10.6875C14.2344 10.5938 14.375 10.5 14.5625 10.5H16.4375C16.5781 10.5 16.7188 10.5938 16.8125 10.6875C16.9062 10.7812 17 10.9219 17 11.0625V12.9375ZM12.5 17.4375C12.5 17.625 12.4062 17.7656 12.3125 17.8594C12.2188 17.9531 12.0781 18 11.9375 18H10.0625C9.875 18 9.73438 17.9531 9.64062 17.8594C9.54688 17.7656 9.5 17.625 9.5 17.4375V15.5625C9.5 15.4219 9.54688 15.2812 9.64062 15.1875C9.73438 15.0938 9.875 15 10.0625 15H11.9375C12.0781 15 12.2188 15.0938 12.3125 15.1875C12.4062 15.2812 12.5 15.4219 12.5 15.5625V17.4375ZM8 17.4375C8 17.625 7.90625 17.7656 7.8125 17.8594C7.71875 17.9531 7.57812 18 7.4375 18H5.5625C5.375 18 5.23438 17.9531 5.14062 17.8594C5.04688 17.7656 5 17.625 5 17.4375V15.5625C5 15.4219 5.04688 15.2812 5.14062 15.1875C5.23438 15.0938 5.375 15 5.5625 15H7.4375C7.57812 15 7.71875 15.0938 7.8125 15.1875C7.90625 15.2812 8 15.4219 8 15.5625V17.4375ZM17 17.4375C17 17.625 16.9062 17.7656 16.8125 17.8594C16.7188 17.9531 16.5781 18 16.4375 18H14.5625C14.375 18 14.2344 17.9531 14.1406 17.8594C14.0469 17.7656 14 17.625 14 17.4375V15.5625C14 15.4219 14.0469 15.2812 14.1406 15.1875C14.2344 15.0938 14.375 15 14.5625 15H16.4375C16.5781 15 16.7188 15.0938 16.8125 15.1875C16.9062 15.2812 17 15.4219 17 15.5625V17.4375ZM21.5 5.25C21.5 4.64062 21.2656 4.125 20.8438 3.65625C20.375 3.23438 19.8594 3 19.25 3H17V0.5625C17 0.421875 16.9062 0.28125 16.8125 0.1875C16.7188 0.09375 16.5781 0 16.4375 0H14.5625C14.375 0 14.2344 0.09375 14.1406 0.1875C14.0469 0.28125 14 0.421875 14 0.5625V3H8V0.5625C8 0.421875 7.90625 0.28125 7.8125 0.1875C7.71875 0.09375 7.57812 0 7.4375 0H5.5625C5.375 0 5.23438 0.09375 5.14062 0.1875C5.04688 0.28125 5 0.421875 5 0.5625V3H2.75C2.09375 3 1.57812 3.23438 1.15625 3.65625C0.6875 4.125 0.5 4.64062 0.5 5.25V21.75C0.5 22.4062 0.6875 22.9219 1.15625 23.3438C1.57812 23.8125 2.09375 24 2.75 24H19.25C19.8594 24 20.375 23.8125 20.8438 23.3438C21.2656 22.9219 21.5 22.4062 21.5 21.75V5.25ZM19.25 21.4688C19.25 21.5625 19.2031 21.6094 19.1562 21.6562C19.0625 21.75 19.0156 21.75 18.9688 21.75H3.03125C2.9375 21.75 2.89062 21.75 2.84375 21.6562C2.75 21.6094 2.75 21.5625 2.75 21.4688V7.5H19.25V21.4688Z" fill="#EEEEEE"/>
</svg>
