<svg width="22" height="24" viewBox="0 0 22 24" fill="none" xmlns="http://www.w3.org/2000/svg">
<path d="M19.25 3C19.8594 3 20.375 3.23438 20.8438 3.65625C21.2656 4.125 21.5 4.64062 21.5 5.25V21.75C21.5 22.4062 21.2656 22.9219 20.8438 23.3438C20.375 23.8125 19.8594 24 19.25 24H2.75C2.09375 24 1.57812 23.8125 1.15625 23.3438C0.6875 22.9219 0.5 22.4062 0.5 21.75V5.25C0.5 4.64062 0.6875 4.125 1.15625 3.65625C1.57812 3.23438 2.09375 3 2.75 3H5V0.5625C5 0.421875 5.04688 0.28125 5.14062 0.1875C5.23438 0.09375 5.375 0 5.5625 0H7.4375C7.57812 0 7.71875 0.09375 7.8125 0.1875C7.90625 0.28125 8 0.421875 8 0.5625V3H14V0.5625C14 0.421875 14.0469 0.28125 14.1406 0.1875C14.2344 0.09375 14.375 0 14.5625 0H16.4375C16.5781 0 16.7188 0.09375 16.8125 0.1875C16.9062 0.28125 17 0.421875 17 0.5625V3H19.25ZM18.9688 21.75C19.0156 21.75 19.0625 21.75 19.1562 21.6562C19.2031 21.6094 19.25 21.5625 19.25 21.4688V7.5H2.75V21.4688C2.75 21.5625 2.75 21.6094 2.84375 21.6562C2.89062 21.75 2.9375 21.75 3.03125 21.75H18.9688ZM16.4844 12.3281C16.5781 12.2344 16.6719 12.1406 16.6719 11.9531C16.6719 11.8125 16.5781 11.6719 16.4844 11.5312L15.4531 10.5C15.3125 10.4062 15.1719 10.3125 15.0312 10.3125C14.8438 10.3125 14.75 10.4062 14.6562 10.5L9.45312 15.6562L7.39062 13.5469C7.25 13.4531 7.10938 13.4062 6.96875 13.4062C6.78125 13.4062 6.6875 13.4531 6.59375 13.5469L5.51562 14.625C5.375 14.7188 5.32812 14.8594 5.32812 15C5.32812 15.1875 5.375 15.3281 5.51562 15.4219L9.03125 18.9375C9.125 19.0781 9.21875 19.125 9.40625 19.125C9.54688 19.125 9.6875 19.0781 9.82812 18.9844L16.4844 12.3281Z" fill="#EEEEEE"/>
</svg>
