<svg width="20" height="21" viewBox="0 0 20 21" fill="none" xmlns="http://www.w3.org/2000/svg">
<path d="M8.82812 9.5625C8.35938 9.44531 8.00781 9.21094 7.69531 8.89844C7.38281 8.58594 7.1875 8.19531 7.14844 7.72656C7.07031 7.10156 7.1875 6.55469 7.57812 6.08594C7.96875 5.61719 8.4375 5.34375 9.0625 5.26562V4.5625C9.0625 4.40625 9.10156 4.25 9.21875 4.13281C9.33594 4.01562 9.49219 3.9375 9.6875 3.9375H10.3125C10.4688 3.9375 10.625 4.01562 10.7422 4.13281C10.8594 4.25 10.9375 4.40625 10.9375 4.5625V5.26562C11.4062 5.34375 11.7969 5.46094 12.1875 5.69531C12.2656 5.77344 12.3438 5.89062 12.3438 6.04688C12.3438 6.20312 12.3047 6.35938 12.2266 6.4375L11.5625 7.10156C11.4062 7.25781 11.2109 7.29688 11.0156 7.17969C10.8594 7.14062 10.7422 7.10156 10.5859 7.10156H9.33594C9.21875 7.10156 9.14062 7.14062 9.0625 7.21875C8.98438 7.29688 8.98438 7.33594 8.98438 7.41406C8.98438 7.60938 9.0625 7.72656 9.21875 7.72656L11.1719 8.3125C11.6016 8.46875 11.9922 8.70312 12.3047 9.01562C12.6172 9.32812 12.7734 9.71875 12.8516 10.1484C12.9297 10.7734 12.7734 11.3594 12.3828 11.8281C11.9922 12.2969 11.5234 12.5703 10.9375 12.6094V13.3125C10.9375 13.5078 10.8594 13.6641 10.7422 13.7812C10.625 13.8984 10.4688 13.9375 10.3125 13.9375H9.6875C9.49219 13.9375 9.33594 13.8984 9.21875 13.7812C9.10156 13.6641 9.0625 13.5078 9.0625 13.3125V12.6094C8.59375 12.5703 8.16406 12.4141 7.8125 12.1797C7.69531 12.1016 7.61719 11.9844 7.61719 11.8281C7.61719 11.6719 7.65625 11.5547 7.77344 11.4375L8.4375 10.7734C8.59375 10.6172 8.75 10.6172 8.98438 10.6953C9.10156 10.7734 9.25781 10.7734 9.41406 10.7734H10.6641C10.7422 10.7734 10.8203 10.7734 10.8984 10.6953C10.9766 10.6172 11.0156 10.5391 11.0156 10.4609C11.0156 10.3047 10.9375 10.1875 10.7812 10.1484L8.82812 9.5625ZM18.75 13C19.0625 13 19.375 13.1562 19.6094 13.4297C19.8438 13.7422 20 14.0938 20 14.4844V19.0156C20 19.4453 19.8438 19.7969 19.6094 20.0703C19.375 20.3828 19.0625 20.5 18.75 20.5H1.25C0.898438 20.5 0.585938 20.3828 0.351562 20.0703C0.117188 19.7969 0 19.4453 0 19.0156V14.4844C0 14.0938 0.117188 13.7422 0.351562 13.4297C0.585938 13.1562 0.898438 13 1.25 13H2.61719C1.91406 11.75 1.5625 10.3828 1.5625 8.9375C1.5625 7.41406 1.91406 6.00781 2.69531 4.71875C3.4375 3.42969 4.45312 2.41406 5.74219 1.63281C7.03125 0.890625 8.4375 0.5 10 0.5C11.5234 0.5 12.9297 0.890625 14.2188 1.63281C15.5078 2.41406 16.5234 3.42969 17.3047 4.71875C18.0469 6.00781 18.4375 7.41406 18.4375 8.9375C18.4375 10.3828 18.0859 11.75 17.3828 13H18.75ZM10 2.375C8.78906 2.375 7.69531 2.6875 6.67969 3.27344C5.66406 3.85938 4.88281 4.64062 4.29688 5.65625C3.71094 6.67188 3.4375 7.76562 3.4375 8.9375C3.4375 10.1484 3.71094 11.2422 4.29688 12.2578C4.88281 13.2734 5.66406 14.0547 6.67969 14.6406C7.69531 15.2266 8.78906 15.5 10 15.5C11.1719 15.5 12.2656 15.2266 13.2812 14.6406C14.2969 14.0547 15.0781 13.2734 15.6641 12.2578C16.25 11.2422 16.5625 10.1484 16.5625 8.9375C16.5625 7.76562 16.25 6.67188 15.6641 5.65625C15.0781 4.64062 14.2969 3.85938 13.2812 3.27344C12.2656 2.6875 11.1719 2.375 10 2.375ZM18.125 18.625V14.875H15.9766C15.5078 15.3438 15 15.7734 14.4141 16.125H15.9375C16.0156 16.125 16.0547 16.1641 16.1328 16.2422C16.2109 16.3203 16.25 16.3594 16.25 16.4375V17.0625C16.25 17.1406 16.2109 17.2188 16.1328 17.2969C16.0547 17.375 16.0156 17.375 15.9375 17.375H4.0625C3.98438 17.375 3.90625 17.375 3.82812 17.2969C3.75 17.2188 3.75 17.1406 3.75 17.0625V16.4375C3.75 16.3594 3.75 16.3203 3.82812 16.2422C3.90625 16.1641 3.98438 16.125 4.0625 16.125H5.58594C4.96094 15.7734 4.45312 15.3438 4.02344 14.875H1.875V18.625H18.125Z" fill="white"/>
</svg>
