<svg width="20" height="15" viewBox="0 0 20 15" fill="none" xmlns="http://www.w3.org/2000/svg">
<path d="M18.125 0C18.6328 0 19.0625 0.195312 19.4531 0.546875C19.8047 0.9375 20 1.36719 20 1.875V13.125C20 13.6719 19.8047 14.1016 19.4531 14.4531C19.0625 14.8438 18.6328 15 18.125 15H1.875C1.32812 15 0.898438 14.8438 0.546875 14.4531C0.15625 14.1016 0 13.6719 0 13.125V1.875C0 1.36719 0.15625 0.9375 0.546875 0.546875C0.898438 0.195312 1.32812 0 1.875 0H18.125ZM18.125 1.875H1.875V3.47656C2.77344 4.21875 4.53125 5.58594 7.14844 7.61719L7.5 7.92969C8.00781 8.39844 8.4375 8.71094 8.75 8.86719C9.21875 9.21875 9.64844 9.375 10 9.375C10.3125 9.375 10.7422 9.21875 11.25 8.86719C11.5625 8.71094 11.9531 8.39844 12.5 7.92969L12.8516 7.61719C15.4297 5.625 17.1875 4.25781 18.125 3.47656V1.875ZM1.875 13.125H18.125V5.85938L13.5938 9.45312C12.9297 10 12.3828 10.3906 11.9922 10.625C11.2891 11.0547 10.625 11.25 10 11.25C9.375 11.25 8.67188 11.0547 7.96875 10.625C7.57812 10.3906 7.03125 10 6.36719 9.45312L1.875 5.85938V13.125Z" fill="#1F2A4B"/>
</svg>
