<svg width="24" height="24" viewBox="0 0 24 24" fill="none" xmlns="http://www.w3.org/2000/svg">
<path d="M12 1.875C10.125 1.875 8.4375 2.34375 6.89062 3.23438C5.34375 4.17188 4.125 5.39062 3.23438 6.9375C2.29688 8.48438 1.875 10.1719 1.875 12C1.875 13.875 2.29688 15.5625 3.23438 17.1094C4.125 18.6562 5.34375 19.875 6.89062 20.7656C8.4375 21.7031 10.125 22.125 12 22.125C13.8281 22.125 15.5156 21.7031 17.0625 20.7656C18.6094 19.875 19.8281 18.6562 20.7656 17.1094C21.6562 15.5625 22.125 13.875 22.125 12C22.125 10.1719 21.6562 8.48438 20.7656 6.9375C19.8281 5.39062 18.6094 4.17188 17.0625 3.23438C15.4688 2.34375 13.7812 1.875 12 1.875ZM12 0.375C14.0625 0.375 16.0312 0.9375 17.8125 1.96875C19.5938 3 21 4.40625 22.0312 6.1875C23.0625 7.96875 23.625 9.9375 23.625 12C23.625 14.1094 23.0625 16.0312 22.0312 17.8125C21 19.5938 19.5938 21.0469 17.8125 22.0781C16.0312 23.1094 14.0625 23.625 12 23.625C9.89062 23.625 7.96875 23.1094 6.1875 22.0781C4.40625 21.0469 2.95312 19.5938 1.92188 17.8125C0.890625 16.0312 0.375 14.1094 0.375 12C0.375 9.9375 0.890625 7.96875 1.92188 6.1875C2.95312 4.40625 4.40625 3 6.1875 1.96875C7.96875 0.9375 9.89062 0.375 12 0.375ZM10.3125 16.5C10.125 16.5 9.98438 16.5938 9.89062 16.6875C9.79688 16.7812 9.75 16.9219 9.75 17.0625V17.4375C9.75 17.625 9.79688 17.7656 9.89062 17.8594C9.98438 17.9531 10.125 18 10.3125 18H13.6875C13.8281 18 13.9688 17.9531 14.0625 17.8594C14.1562 17.7656 14.25 17.625 14.25 17.4375V17.0625C14.25 16.9219 14.1562 16.7812 14.0625 16.6875C13.9688 16.5938 13.8281 16.5 13.6875 16.5H13.125V9.9375C13.125 9.79688 13.0312 9.65625 12.9375 9.5625C12.8438 9.46875 12.7031 9.375 12.5625 9.375H10.3125C10.125 9.375 9.98438 9.46875 9.89062 9.5625C9.79688 9.65625 9.75 9.79688 9.75 9.9375V10.3125C9.75 10.5 9.79688 10.6406 9.89062 10.7344C9.98438 10.8281 10.125 10.875 10.3125 10.875H10.875V16.5H10.3125ZM12 5.25C12.375 5.25 12.75 5.4375 13.0312 5.71875C13.3125 6 13.5 6.375 13.5 6.75C13.5 7.17188 13.3125 7.54688 13.0312 7.82812C12.75 8.10938 12.375 8.25 12 8.25C11.5781 8.25 11.2031 8.10938 10.9219 7.82812C10.6406 7.54688 10.5 7.17188 10.5 6.75C10.5 6.375 10.6406 6 10.9219 5.71875C11.2031 5.4375 11.5781 5.25 12 5.25Z" fill="#A6A6A6"/>
</svg>
