<svg width="18" height="21" viewBox="0 0 18 21" fill="none" xmlns="http://www.w3.org/2000/svg">
<path d="M17.2031 8.07812C17.5547 8.46875 17.75 8.89844 17.75 9.40625V18.625C17.75 19.1719 17.5547 19.6016 17.2031 19.9531C16.8125 20.3438 16.3828 20.5 15.875 20.5H7.125C6.57812 20.5 6.14844 20.3438 5.79688 19.9531C5.40625 19.6016 5.25 19.1719 5.25 18.625V16.75H2.125C1.57812 16.75 1.14844 16.5938 0.796875 16.2031C0.40625 15.8516 0.25 15.4219 0.25 14.875V3.625C0.25 3.11719 0.40625 2.6875 0.796875 2.29688C1.14844 1.94531 1.57812 1.75 2.125 1.75H4.50781C4.66406 1.39844 4.9375 1.08594 5.32812 0.851562C5.67969 0.617188 6.07031 0.5 6.5 0.5C6.89062 0.5 7.28125 0.617188 7.67188 0.851562C8.02344 1.08594 8.29688 1.39844 8.49219 1.75H10.875C11.3828 1.75 11.8125 1.94531 12.2031 2.29688C12.5547 2.6875 12.75 3.11719 12.75 3.625V5.5H13.8438C14.3516 5.5 14.7812 5.69531 15.1719 6.04688L17.2031 8.07812ZM13.9219 7.45312C13.8438 7.41406 13.8047 7.375 13.7656 7.375H13.375V9.875H15.875V9.48438C15.875 9.44531 15.8359 9.40625 15.7969 9.32812L13.9219 7.45312ZM6.5 1.98438C6.30469 1.98438 6.14844 2.0625 5.99219 2.21875C5.83594 2.375 5.79688 2.53125 5.79688 2.6875C5.79688 2.88281 5.83594 3.03906 5.99219 3.19531C6.14844 3.35156 6.30469 3.39062 6.5 3.39062C6.65625 3.39062 6.8125 3.35156 6.96875 3.19531C7.125 3.03906 7.20312 2.88281 7.20312 2.6875C7.20312 2.53125 7.125 2.375 6.96875 2.21875C6.8125 2.0625 6.65625 1.98438 6.5 1.98438ZM5.25 7.375C5.25 6.86719 5.40625 6.4375 5.79688 6.04688C6.14844 5.69531 6.57812 5.5 7.125 5.5H10.875V3.85938C10.875 3.82031 10.8359 3.78125 10.7969 3.70312C10.7188 3.66406 10.6797 3.625 10.6406 3.625H8.49219C8.29688 4.01562 8.02344 4.28906 7.67188 4.52344C7.28125 4.75781 6.89062 4.875 6.5 4.875C6.07031 4.875 5.67969 4.75781 5.32812 4.52344C4.9375 4.28906 4.66406 4.01562 4.50781 3.625H2.35938C2.28125 3.625 2.24219 3.66406 2.20312 3.70312C2.125 3.78125 2.125 3.82031 2.125 3.85938V14.6406C2.125 14.7188 2.125 14.7578 2.20312 14.7969C2.24219 14.875 2.28125 14.875 2.35938 14.875H5.25V7.375ZM15.6406 18.625C15.6797 18.625 15.7188 18.625 15.7969 18.5469C15.8359 18.5078 15.875 18.4688 15.875 18.3906V11.75H12.4375C12.1641 11.75 11.9297 11.6719 11.7734 11.4766C11.5781 11.3203 11.5 11.0859 11.5 10.8125V7.375H7.35938C7.28125 7.375 7.24219 7.41406 7.20312 7.45312C7.125 7.53125 7.125 7.57031 7.125 7.60938V18.3906C7.125 18.4688 7.125 18.5078 7.20312 18.5469C7.24219 18.625 7.28125 18.625 7.35938 18.625H15.6406Z" fill="#1F2A4B"/>
</svg>
