<svg width="136" height="145" viewBox="0 0 136 145" fill="none" xmlns="http://www.w3.org/2000/svg">
<path d="M127.062 23.625C129.594 24.75 131.562 26.1562 133.25 28.4062C134.656 30.6562 135.5 33.1875 135.5 36C135.5 55.4062 131.844 73.125 124.812 89.1562C118.625 102.656 110.188 114.469 100.062 124.594C91.3438 133.031 82.3438 139.219 73.0625 142.875C69.6875 144.562 66.3125 144.562 62.9375 142.875C52.25 138.656 42.4062 131.625 33.4062 122.062C23.2812 111.938 15.6875 99.8438 10.0625 85.7812C3.59375 70.3125 0.5 53.7188 0.5 36C0.5 33.1875 1.0625 30.6562 2.75 28.4062C4.15625 26.1562 6.125 24.75 8.9375 23.625L62.9375 1.125C66.3125 -0.28125 69.6875 -0.28125 73.0625 1.125L127.062 23.625ZM68 130.5C77 126.844 85.7188 120.656 93.5938 111.938C102.031 102.938 108.781 92.25 113.844 79.875C119.188 66.375 122 51.75 122 36L68 13.5L14 36C14 51.1875 16.5312 65.5312 21.875 79.0312C26.6562 91.4062 33.4062 102.375 41.8438 111.375C49.7188 120.375 58.4375 126.562 68 130.5ZM109.625 53.4375C110.188 52.875 110.469 52.3125 110.469 51.1875C110.469 50.3438 110.188 49.5 109.625 48.6562L103.156 42.4688C102.594 41.9062 101.75 41.3438 100.906 41.3438C99.7812 41.3438 98.9375 41.9062 98.375 42.4688L58.7188 81.8438L41.8438 64.6875C41.2812 64.125 40.4375 63.8438 39.5938 63.8438C38.4688 63.8438 37.625 64.125 37.0625 64.6875L30.875 71.1562C30.0312 71.7188 29.75 72.5625 29.75 73.4062C29.75 74.5312 30.0312 75.375 30.5938 75.9375L56.1875 101.531C56.75 102.375 57.5938 102.656 58.7188 102.656C59.5625 102.656 60.4062 102.375 60.9688 101.531L109.625 53.4375Z" fill="#1F2A4B"/>
</svg>
