<svg id="Layer_1" data-name="Layer 1" xmlns="http://www.w3.org/2000/svg" viewBox="0 0 1024 1024"><defs><style>.cls-1{fill:#fff;}</style></defs><title>Artboard 1</title><path class="cls-1" d="M812,112H212c-55,0-100,45-100,100V812c0,55,45,100,100,100H812c55,0,100-45,100-100V212C912,157,867,112,812,112Zm-154,590.73a104.16,104.16,0,0,1-2.68,18.4,97.14,97.14,0,0,1-12,28.81C622,784.2,574.76,791.4,537.51,793.6c-8.47.51-16.93.68-25.43.68a308.63,308.63,0,0,1-34.6-.93c-20-1.67-29.66-3.67-41.29-6.44-26.36-6.26-46.76-26.07-57.66-51.14a98.88,98.88,0,0,1-4.45-12.24c-12.42-42.73,8.94-82,14.36-93.56,18.74-39.91,49.62-69.88,74.73-105.16,2.35-3.3,4.72-6.88,4.94-10.95.2-3.81-1.58-7.42-3.41-10.75C448,472.8,422,449.77,401.11,422.73,379.16,394.31,364,358.19,366,321.27a109.87,109.87,0,0,1,2.59-18.4,98.5,98.5,0,0,1,11.63-28.81c20.74-34.26,66.61-41.46,102.76-43.66,8.18-.51,16.34-.68,24.55-.68h.12a325.15,325.15,0,0,1,35.53.93c20.6,1.67,30.56,3.67,42.53,6.41,27.18,6.26,48.2,26.1,59.43,51.14a99.81,99.81,0,0,1,4.58,12.27c12.81,42.73-9.2,82-14.79,93.56-19.34,39.91-51.14,69.88-77,105.16-2.4,3.3-4.86,6.88-5.08,10.95-.2,3.81,1.64,7.42,3.53,10.75,17.21,30.31,44,53.34,65.5,80.38C644.44,629.69,660.05,665.81,658.05,702.73Z"/></svg>