<svg width="21" height="15" viewBox="0 0 21 15" fill="none" xmlns="http://www.w3.org/2000/svg">
<path d="M18.625 0C19.1328 0 19.5625 0.195312 19.9531 0.546875C20.3047 0.9375 20.5 1.36719 20.5 1.875V13.125C20.5 13.6719 20.3047 14.1016 19.9531 14.4531C19.5625 14.8438 19.1328 15 18.625 15H2.375C1.82812 15 1.39844 14.8438 1.04688 14.4531C0.65625 14.1016 0.5 13.6719 0.5 13.125V1.875C0.5 1.36719 0.65625 0.9375 1.04688 0.546875C1.39844 0.195312 1.82812 0 2.375 0H18.625ZM18.625 1.875H2.375V3.47656C3.27344 4.21875 5.03125 5.58594 7.64844 7.61719L8 7.92969C8.50781 8.39844 8.9375 8.71094 9.25 8.86719C9.71875 9.21875 10.1484 9.375 10.5 9.375C10.8125 9.375 11.2422 9.21875 11.75 8.86719C12.0625 8.71094 12.4531 8.39844 13 7.92969L13.3516 7.61719C15.9297 5.625 17.6875 4.25781 18.625 3.47656V1.875ZM2.375 13.125H18.625V5.85938L14.0938 9.45312C13.4297 10 12.8828 10.3906 12.4922 10.625C11.7891 11.0547 11.125 11.25 10.5 11.25C9.875 11.25 9.17188 11.0547 8.46875 10.625C8.07812 10.3906 7.53125 10 6.86719 9.45312L2.375 5.85938V13.125Z" fill="white"/>
</svg>
