<svg width="21" height="17" viewBox="0 0 21 17" fill="none" xmlns="http://www.w3.org/2000/svg">
<path d="M18.4297 4.4375C19.2109 3.85156 19.9141 3.14844 20.5 2.28906C19.7188 2.64062 18.9375 2.875 18.1562 2.95312C19.0156 2.40625 19.6406 1.66406 19.9531 0.6875C19.1328 1.15625 18.2734 1.50781 17.3359 1.66406C16.9453 1.27344 16.4766 0.960938 15.9688 0.726562C15.4609 0.492188 14.9141 0.375 14.3281 0.375C13.5859 0.375 12.9219 0.570312 12.2969 0.921875C11.6719 1.3125 11.1641 1.82031 10.8125 2.44531C10.4219 3.07031 10.2656 3.77344 10.2656 4.47656C10.2656 4.78906 10.2656 5.10156 10.3438 5.41406C8.66406 5.33594 7.10156 4.94531 5.61719 4.16406C4.13281 3.42188 2.92188 2.40625 1.90625 1.11719C1.51562 1.78125 1.32031 2.48438 1.32031 3.1875C1.32031 3.89062 1.47656 4.55469 1.82812 5.14062C2.14062 5.76562 2.60938 6.23438 3.15625 6.625C2.49219 6.625 1.86719 6.42969 1.32031 6.07812V6.15625C1.32031 7.13281 1.63281 7.99219 2.25781 8.73438C2.88281 9.51562 3.66406 9.98438 4.60156 10.1797C4.21094 10.2578 3.85938 10.2969 3.50781 10.2969C3.27344 10.2969 3 10.2969 2.76562 10.2578C3 11.0781 3.46875 11.7422 4.17188 12.2891C4.875 12.8359 5.65625 13.0703 6.59375 13.0703C5.07031 14.2422 3.35156 14.8281 1.47656 14.8281C1.08594 14.8281 0.773438 14.8281 0.5 14.7891C2.375 16.0391 4.48438 16.625 6.78906 16.625C9.17188 16.625 11.2812 16.0391 13.1562 14.7891C14.8359 13.6953 16.1641 12.25 17.1016 10.375C18 8.65625 18.4688 6.82031 18.4688 4.94531C18.4688 4.71094 18.4297 4.55469 18.4297 4.4375Z" fill="white"/>
</svg>
