<svg width="19" height="19" viewBox="0 0 19 19" fill="none" xmlns="http://www.w3.org/2000/svg">
<path d="M15.6328 3.28906C16.4531 4.14844 17.0781 5.08594 17.5469 6.14062C18.0156 7.19531 18.25 8.28906 18.25 9.42188C18.25 10.9844 17.8203 12.4297 17.0391 13.7578C16.2578 15.0859 15.1641 16.1406 13.8359 16.9219C12.5078 17.7031 11.0625 18.0938 9.5 18.0938C8.01562 18.0938 6.60938 17.7422 5.35938 17.0391L0.75 18.25L2 13.7578C1.21875 12.4297 0.828125 10.9844 0.828125 9.42188C0.828125 7.85938 1.21875 6.41406 2 5.08594C2.78125 3.75781 3.83594 2.70312 5.16406 1.92188C6.49219 1.14062 7.9375 0.75 9.5 0.75C10.6328 0.75 11.7266 0.984375 12.7812 1.41406C13.8359 1.88281 14.7734 2.50781 15.6328 3.28906ZM9.5 16.6484C10.7891 16.6484 12 16.3359 13.1328 15.6719C14.2266 15.0469 15.125 14.1484 15.7891 13.0547C16.4531 11.9609 16.8047 10.75 16.8047 9.42188C16.8047 8.48438 16.6094 7.58594 16.2188 6.6875C15.8281 5.82812 15.2812 5.04688 14.5781 4.34375C13.875 3.64062 13.0938 3.13281 12.2344 2.74219C11.375 2.39062 10.4375 2.19531 9.5 2.19531C8.17188 2.19531 6.96094 2.54688 5.86719 3.17188C4.77344 3.83594 3.875 4.73438 3.25 5.82812C2.58594 6.92188 2.27344 8.13281 2.27344 9.42188C2.27344 10.8281 2.625 12.0781 3.40625 13.25L3.5625 13.5234L2.82031 16.1797L5.55469 15.4766L5.82812 15.6328C6.92188 16.3359 8.17188 16.6484 9.5 16.6484ZM13.4453 11.2188L13.5625 11.2969C13.7188 11.375 13.8359 11.4531 13.875 11.4922C13.875 11.5703 13.875 11.6875 13.875 11.8828C13.875 12.1172 13.7969 12.3125 13.7188 12.5469C13.6406 12.7812 13.4062 12.9766 13.0938 13.2109C12.7812 13.4453 12.5078 13.5625 12.2734 13.5625C11.8828 13.6406 11.5312 13.6406 11.2188 13.5625C10.8281 13.4844 10.2812 13.3281 9.65625 13.0156C8.32812 12.4688 7.11719 11.375 6.02344 9.8125L5.94531 9.73438C5.35938 8.95312 5.08594 8.21094 5.08594 7.50781C5.08594 6.84375 5.32031 6.25781 5.78906 5.75L5.82812 5.71094C5.98438 5.55469 6.17969 5.4375 6.41406 5.4375H6.88281C6.96094 5.4375 7.03906 5.47656 7.11719 5.51562C7.19531 5.55469 7.23438 5.63281 7.3125 5.78906L7.97656 7.39062C8.05469 7.54688 8.05469 7.70312 8.01562 7.78125C7.85938 8.05469 7.70312 8.28906 7.50781 8.48438C7.39062 8.60156 7.3125 8.67969 7.3125 8.75781C7.27344 8.83594 7.3125 8.875 7.39062 8.95312C7.74219 9.65625 8.17188 10.1641 8.67969 10.5547C9.03125 10.8672 9.57812 11.1797 10.3203 11.5312C10.5156 11.6484 10.6719 11.6484 10.7891 11.4922C11.1016 11.1016 11.3359 10.8281 11.4922 10.6328C11.5312 10.5547 11.6094 10.4766 11.6875 10.4766C11.7656 10.4766 11.8438 10.5156 11.9609 10.5156C12.1562 10.5938 12.6641 10.8281 13.4453 11.2188Z" fill="white"/>
</svg>
